<svg width="36" height="36" viewBox="0 0 36 36" fill="none" xmlns="http://www.w3.org/2000/svg">
<circle cx="18" cy="18" r="18" fill="#EDE8E3"/>
<path d="M24.71 13.21C24.617 13.1163 24.5064 13.0419 24.3846 12.9911C24.2627 12.9403 24.132 12.9142 24 12.9142C23.868 12.9142 23.7373 12.9403 23.6154 12.9911C23.4936 13.0419 23.383 13.1163 23.29 13.21L15.84 20.67L12.71 17.53C12.6135 17.4368 12.4995 17.3634 12.3747 17.3142C12.2498 17.265 12.1165 17.2409 11.9823 17.2432C11.8482 17.2456 11.7157 17.2743 11.5927 17.3278C11.4696 17.3813 11.3582 17.4585 11.265 17.555C11.1718 17.6515 11.0985 17.7655 11.0493 17.8903C11.0001 18.0152 10.9759 18.1485 10.9782 18.2827C10.9806 18.4169 11.0093 18.5493 11.0628 18.6723C11.1163 18.7954 11.1935 18.9068 11.29 19L15.13 22.84C15.223 22.9337 15.3336 23.0081 15.4554 23.0589C15.5773 23.1097 15.708 23.1358 15.84 23.1358C15.972 23.1358 16.1027 23.1097 16.2246 23.0589C16.3464 23.0081 16.457 22.9337 16.55 22.84L24.71 14.68C24.8115 14.5864 24.8925 14.4727 24.9479 14.3462C25.0033 14.2197 25.0319 14.0831 25.0319 13.945C25.0319 13.8069 25.0033 13.6703 24.9479 13.5438C24.8925 13.4173 24.8115 13.3036 24.71 13.21Z" fill="#26D266" stroke="#26D166"/>
</svg>
