<svg width="36" height="36" viewBox="0 0 36 36" fill="none" xmlns="http://www.w3.org/2000/svg">
<circle cx="18" cy="18" r="18" fill="#EDE8E3"/>
<path d="M27.34 20.17C17.17 20.17 17.17 22.807 7 22.807V12.637C17.17 12.637 17.17 10 27.34 10V20.17Z" fill="#F0EBE6" stroke="url(#paint0_linear_14_448)" stroke-width="0.716196" stroke-miterlimit="10"/>
<path d="M29.5516 22.3615C19.3816 22.3615 19.3816 25 9.21161 25V14.83C19.3816 14.83 19.3816 12.1916 29.5516 12.1916V22.3615Z" fill="url(#paint1_linear_14_448)"/>
<path d="M19.3801 20.9363C20.6728 20.9363 21.7207 19.8884 21.7207 18.5958C21.7207 17.3031 20.6728 16.2552 19.3801 16.2552C18.0875 16.2552 17.0396 17.3031 17.0396 18.5958C17.0396 19.8884 18.0875 20.9363 19.3801 20.9363Z" stroke="#F0EBE6" stroke-width="0.716196" stroke-miterlimit="10"/>
<path d="M9.20874 22.6595C9.51665 22.6587 9.82169 22.7187 10.1064 22.836C10.3911 22.9532 10.6499 23.1255 10.868 23.3429C11.086 23.5603 11.2591 23.8185 11.3772 24.1029C11.4953 24.3872 11.5562 24.6921 11.5564 25" stroke="#F0EBE6" stroke-width="0.716196" stroke-miterlimit="10"/>
<path d="M27.211 22.3472C27.2133 21.728 27.4609 21.1348 27.8996 20.6978C28.3382 20.2607 28.9323 20.0153 29.5515 20.0153" stroke="#F0EBE6" stroke-width="0.716196" stroke-miterlimit="10"/>
<path d="M29.5515 14.5307C28.9308 14.5307 28.3355 14.2841 27.8965 13.8451C27.4576 13.4062 27.211 12.8109 27.211 12.1901" stroke="#F0EBE6" stroke-width="0.716196" stroke-miterlimit="10"/>
<path d="M11.5564 14.883C11.5562 15.1909 11.4953 15.4957 11.3772 15.7799C11.259 16.0642 11.0859 16.3224 10.8679 16.5396C10.6498 16.7569 10.391 16.929 10.1063 17.0462C9.82159 17.1633 9.51658 17.2231 9.20874 17.2221" stroke="#F0EBE6" stroke-width="0.716196" stroke-miterlimit="10"/>
<defs>
<linearGradient id="paint0_linear_14_448" x1="6.63904" y1="16.4028" x2="27.6981" y2="16.4028" gradientUnits="userSpaceOnUse">
<stop stop-color="#1F8654"/>
<stop offset="0.02" stop-color="#1F8C55"/>
<stop offset="0.16" stop-color="#21A65B"/>
<stop offset="0.3" stop-color="#23BA60"/>
<stop offset="0.47" stop-color="#24C863"/>
<stop offset="0.67" stop-color="#25D065"/>
<stop offset="1" stop-color="#25D366"/>
</linearGradient>
<linearGradient id="paint1_linear_14_448" x1="17.9778" y1="26.5456" x2="20.7825" y2="10.6446" gradientUnits="userSpaceOnUse">
<stop stop-color="#1F8654"/>
<stop offset="0.02" stop-color="#1F8C55"/>
<stop offset="0.16" stop-color="#21A65B"/>
<stop offset="0.3" stop-color="#23BA60"/>
<stop offset="0.47" stop-color="#24C863"/>
<stop offset="0.67" stop-color="#25D065"/>
<stop offset="1" stop-color="#25D366"/>
</linearGradient>
</defs>
</svg>
